<?xml version="1.0" standalone="no"?>
<!DOCTYPE svg PUBLIC "-//W3C//DTD SVG 20010904//EN"
 "http://www.w3.org/TR/2001/REC-SVG-20010904/DTD/svg10.dtd">
<svg version="1.0" xmlns="http://www.w3.org/2000/svg"
 width="256.000000pt" height="256.000000pt" viewBox="0 0 256.000000 256.000000"
 preserveAspectRatio="xMidYMid meet">
<metadata>
Created by potrace 1.11, written by Peter Selinger 2001-2013
</metadata>
<g transform="translate(0.000000,256.000000) scale(0.100000,-0.100000)"
fill="#000000" stroke="none">
<path d="M1080 2545 c-397 -62 -760 -327 -940 -685 -378 -754 45 -1644 870
-1831 257 -58 568 -23 807 91 476 227 764 698 740 1215 -11 259 -96 501 -246
703 -286 385 -760 580 -1231 507z m875 -310 c68 -43 107 -114 113 -210 8 -124
-38 -218 -132 -268 -41 -22 -47 -22 -576 -24 -527 -3 -534 -3 -495 16 22 10
59 39 82 64 123 134 80 364 -82 438 -39 19 -32 19 501 16 l541 -2 48 -30z
m-539 -535 c61 -10 363 -50 377 -50 4 0 7 -63 7 -139 0 -129 -2 -140 -19 -146
-11 -3 -24 -12 -31 -20 -9 -11 8 -29 90 -94 57 -45 98 -81 93 -81 -5 0 -53 34
-106 75 -54 41 -99 75 -101 75 -2 0 -59 -72 -127 -160 l-124 -160 -146 0
c-117 0 -149 -3 -159 -15 -7 -8 -10 -22 -6 -30 4 -12 29 -15 138 -15 130 -1
134 -1 166 -28 l33 -27 -55 -54 c-38 -35 -56 -60 -56 -77 0 -24 -1 -24 -102
-24 -113 0 -140 -8 -122 -37 10 -16 31 -18 175 -21 233 -4 306 8 392 64 l67
44 0 -245 0 -245 -523 0 -524 0 -6 488 c-4 268 -7 590 -7 716 l0 229 308 -7
c170 -3 335 -11 368 -16z m449 -386 c17 -15 23 -23 15 -19 -8 5 -22 14 -30 21
-8 7 -31 14 -50 17 l-35 4 35 1 c24 1 44 -7 65 -24z m-321 -462 c6 -10 -90
-93 -98 -85 -7 7 73 93 85 93 5 0 10 -4 13 -8z"/>
<path d="M1072 1365 c-53 -53 -56 -54 -74 -38 -18 16 -20 16 -40 -5 l-22 -22
39 -40 c21 -22 44 -40 51 -40 6 0 20 12 30 27 9 15 37 49 62 75 36 39 43 52
38 73 -4 14 -11 25 -18 25 -6 0 -36 -25 -66 -55z"/>
<path d="M1170 1265 c-7 -8 -10 -22 -6 -30 5 -13 36 -15 228 -13 209 3 223 4
226 22 2 10 -2 22 -10 27 -7 5 -106 9 -219 9 -171 0 -209 -3 -219 -15z"/>
<path d="M1030 1070 c-46 -48 -61 -59 -66 -46 -8 20 -38 21 -54 1 -10 -12 -6
-23 24 -60 21 -25 41 -45 46 -45 5 0 29 26 53 58 25 31 54 66 66 76 25 22 27
48 6 66 -12 10 -25 2 -75 -50z"/>
</g>
</svg>
